<svg xmlns="http://www.w3.org/2000/svg" aria-hidden="true" style="position:absolute;width:0;height:0;overflow:hidden">
  <defs>
    <symbol id="icon-lets-ok-4" viewBox="0 0 32 32">
      <path fill="#00b068" d="M16 0a15.997 15.997 0 0 1 16 16 16.003 16.003 0 0 1-16 16A16.003 16.003 0 0 1 0 16 16.003 16.003 0 0 1 16 0zm-1.993 19.157L10.453 15.6a1.362 1.362 0 0 0-.97-.401 1.37 1.37 0 0 0-1.372 1.371c0 .364.145.713.402.97l4.526 4.526a1.357 1.357 0 0 0 .971.404 1.38 1.38 0 0 0 .971-.404l9.371-9.374a1.366 1.366 0 0 0 .41-.972 1.368 1.368 0 0 0-.848-1.275 1.384 1.384 0 0 0-1.055.003c-.167.07-.318.173-.445.302l-8.405 8.405z" style="fill:var(--color1, #00b068)"/>
    </symbol>
  <symbol id="icon-FAQ" viewBox="0 0 32 32">
<path d="M9 11c0.278 0 0.555 0.116 0.753 0.341l6.247 7.14 6.247-7.14c0.364-0.416 0.995-0.458 1.411-0.094s0.458 0.995 0.094 1.411l-7 8c-0.19 0.217-0.464 0.341-0.753 0.341s-0.563-0.125-0.753-0.341l-7-8c-0.364-0.416-0.322-1.047 0.094-1.411 0.19-0.166 0.424-0.247 0.658-0.247z"></path>
</symbol>
    <symbol id="icon-lets-address-3" viewBox="0 0 32 32">
      <path fill="none" stroke="#00b068" stroke-linecap="round" stroke-linejoin="round" stroke-width="1.524" d="M27.429 12.952C27.429 23.835 16 30.095 16 30.095S4.571 23.835 4.571 12.952a11.428 11.428 0 1 1 22.856 0v0z" style="stroke:var(--color1, #00b068)"/>
    </symbol>
    <symbol id="icon-lets-email-2" viewBox="0 0 32 32">
      <path fill="none" stroke="#00b068" stroke-linecap="round" stroke-linejoin="round" stroke-width="1.454" d="M30.182 8.364v15.273a3.272 3.272 0 0 1-3.273 3.273H5.091a3.272 3.272 0 0 1-3.273-3.273V8.364m28.364 0a3.272 3.272 0 0 0-3.273-3.273H5.091a3.272 3.272 0 0 0-3.273 3.273m28.364 0v.353a3.277 3.277 0 0 1-1.556 2.787l-10.909 6.713a3.27 3.27 0 0 1-3.432 0L3.376 11.506A3.266 3.266 0 0 1 1.82 8.719v-.355" style="stroke:var(--color1, #00b068)"/>
    </symbol>
    <symbol id="icon-lets-tel-1" viewBox="0 0 32 32">
      <path fill="none" stroke="#00b068" stroke-linecap="round" stroke-linejoin="round" stroke-width="1.454" d="M1.818 8.364c0 12.049 9.769 21.818 21.818 21.818h3.273a3.272 3.272 0 0 0 3.273-3.273v-1.996c0-.751-.511-1.405-1.239-1.587l-6.433-1.609c-.64-.16-1.312.08-1.706.607l-1.411 1.881c-.41.547-1.119.788-1.76.553a17.502 17.502 0 0 1-10.39-10.39c-.236-.641.006-1.35.553-1.76l1.881-1.411a1.634 1.634 0 0 0 .607-1.706L8.675 3.058a1.633 1.633 0 0 0-1.587-1.24H5.092a3.272 3.272 0 0 0-3.273 3.273v3.273z" style="stroke:var(--color1, #00b068)"/>
    </symbol>
    <symbol id="icon-lets-mob" viewBox="0 0 32 32">
      <path d="M.486 26.221v-1.939h31.03v1.939H.486zm0-9.251v-1.939h31.03v1.939H.486zm0-9.251V5.78h31.03v1.939H.486z"/>
    </symbol>
    <symbol id="icon-benefits-icon-3" viewBox="0 0 32 32">
      <path fill="#bcdfd1" d="M5.333 0h21.333a5.333 5.333 0 0 1 5.333 5.333v21.333a5.333 5.333 0 0 1-5.333 5.333H5.333A5.333 5.333 0 0 1 0 26.666V5.333A5.333 5.333 0 0 1 5.333 0z" style="fill:var(--color2, #bcdfd1)"/>
      <path fill="none" stroke="#00b068" stroke-linecap="round" stroke-linejoin="round" stroke-width="1.333" d="M20.108 9.333h-8.217a.558.558 0 0 0-.558.558 6.7 6.7 0 0 0 1.962 4.737l.813.813c.081.081.121.121.15.16a.668.668 0 0 1 0 .797c-.029.039-.069.079-.15.16l-.813.813a6.7 6.7 0 0 0-1.962 4.737c0 .308.25.558.558.558h8.217c.308 0 .558-.25.558-.558a6.7 6.7 0 0 0-1.962-4.737l-.813-.813a1.653 1.653 0 0 1-.15-.16.668.668 0 0 1 0-.797c.029-.039.069-.079.15-.16l.813-.813a6.7 6.7 0 0 0 1.962-4.737.558.558 0 0 0-.558-.558z" style="stroke:var(--color1, #00b068)"/>
    </symbol>
    <symbol id="icon-benefits-icon-2" viewBox="0 0 32 32">
      <path fill="#bcdfd1" d="M5.333 0h21.333a5.333 5.333 0 0 1 5.333 5.333v21.333a5.333 5.333 0 0 1-5.333 5.333H5.333A5.333 5.333 0 0 1 0 26.666V5.333A5.333 5.333 0 0 1 5.333 0z" style="fill:var(--color2, #bcdfd1)"/>
      <path fill="none" stroke="#00b068" stroke-linecap="round" stroke-linejoin="round" stroke-width="1.333" d="M16.519 18 14 15.482M9.333 22.666c1.333 0 3.072.228 3.983-.683a2.334 2.334 0 0 0-3.3-3.3c-.911.911 0 2.65-.683 3.983z" style="stroke:var(--color1, #00b068)"/>
      <path fill="none" stroke="#00b068" stroke-linecap="round" stroke-linejoin="round" stroke-width="1.333" d="M13.333 18.666c-.328-.328-.491-.491-.584-.663a1.332 1.332 0 0 1 .025-1.311c.099-.168.269-.325.609-.64l6.579-6.091a1.47 1.47 0 0 1 2.077 2.077l-6.091 6.579c-.315.34-.472.51-.64.609-.403.238-.9.247-1.311.025-.172-.093-.335-.256-.663-.584z" style="stroke:var(--color1, #00b068)"/>
    </symbol>
    <symbol id="icon-benefits-icon-1" viewBox="0 0 32 32">
      <path fill="#bcdfd1" d="M5.333 0h21.333a5.333 5.333 0 0 1 5.333 5.333v21.333a5.333 5.333 0 0 1-5.333 5.333H5.333A5.333 5.333 0 0 1 0 26.666V5.333A5.333 5.333 0 0 1 5.333 0z" style="fill:var(--color2, #bcdfd1)"/>
      <path fill="none" stroke="#00b068" stroke-linecap="round" stroke-linejoin="round" stroke-width="1.333" d="M12.063 15.486a5.398 5.398 0 0 1-.063-.819c0-2.946 2.403-5.333 5.368-5.333s5.368 2.388 5.368 5.333c0 .665-.123 1.302-.347 1.89-.047.122-.07.183-.08.231s-.015.08-.016.129c-.001.049.005.102.019.21l.268 2.18c.029.236.044.354.004.44a.334.334 0 0 1-.171.168c-.087.037-.204.02-.44-.014l-2.123-.311c-.111-.016-.166-.024-.217-.024s-.084.004-.133.014-.113.034-.239.081a5.379 5.379 0 0 1-2.714.279m-3.459 2.727c1.977 0 3.579-1.642 3.579-3.667s-1.602-3.667-3.579-3.667S9.509 16.975 9.509 19c0 .407.065.799.184 1.164.051.155.076.232.084.285.009.055.01.086.007.142a1.563 1.563 0 0 1-.043.234l-.408 1.841 1.997-.273c.109-.015.163-.022.211-.022.05 0 .077.003.126.013.047.009.116.034.255.083a3.5 3.5 0 0 0 1.166.199z" style="stroke:var(--color1, #00b068)"/>
    </symbol>
    <symbol id="icon-benefits-icon" viewBox="0 0 32 32">
      <path fill="#bcdfd1" d="M5.333 0h21.333a5.333 5.333 0 0 1 5.333 5.333v21.333a5.333 5.333 0 0 1-5.333 5.333H5.333A5.333 5.333 0 0 1 0 26.666V5.333A5.333 5.333 0 0 1 5.333 0z" style="fill:var(--color2, #bcdfd1)"/>
      <path fill="none" stroke="#00b068" stroke-linecap="round" stroke-linejoin="round" stroke-width="1.333" d="M21.333 22c0-.93 0-1.396-.115-1.774a2.67 2.67 0 0 0-1.778-1.778c-.379-.115-.844-.115-1.774-.115h-3.333c-.93 0-1.396 0-1.774.115a2.67 2.67 0 0 0-1.778 1.778c-.115.379-.115.844-.115 1.774M16 16a3 3 0 1 0 0-6 3 3 0 0 0 0 6z" style="stroke:var(--color1, #00b068)"/>
    </symbol>
    <symbol id="icon-projects-icon" viewBox="0 0 32 32">
      <path fill="none" stroke="#00b068" stroke-linecap="round" stroke-linejoin="round" stroke-width="2.667" d="M6.333 25.667 25.666 6.334m.001-.001h-18m18 0v18" style="stroke:var(--color1, #00b068)"/>
    </symbol>
    <symbol id="icon-hero-icon" viewBox="0 0 32 32">
      <path fill="#00b068" d="M1.067 14.933a1.067 1.067 0 0 0 0 2.134v-2.133zm30.621 1.821a1.065 1.065 0 0 0 0-1.508L24.9 8.458a1.065 1.065 0 1 0-1.508 1.508L29.426 16l-6.034 6.034a1.065 1.065 0 1 0 1.508 1.508l6.788-6.788zm-30.621.313h29.867v-2.133H1.067v2.133z" style="fill:var(--color1, #00b068)"/>
    </symbol>
    <symbol id="icon-tech-skills" viewBox="0 0 32 32">
      <path d="M18.667 10.667h-5.333a2.667 2.667 0 0 0-2.667 2.667v5.333a2.667 2.667 0 0 0 2.667 2.667h5.333a2.667 2.667 0 0 0 2.667-2.667v-5.333a2.667 2.667 0 0 0-2.667-2.667z"/>
    </symbol>
    <symbol id="icon-arrow-left2" viewBox="0 0 32 32">
      <path d="M12.586 27.414l-10-10c-0.781-0.781-0.781-2.047 0-2.828l10-10c0.781-0.781 2.047-0.781 2.828 0s0.781 2.047 0 2.828l-6.586 6.586h19.172c1.105 0 2 0.895 2 2s-0.895 2-2 2h-19.172l6.586 6.586c0.39 0.39 0.586 0.902 0.586 1.414s-0.195 1.024-0.586 1.414c-0.781 0.781-2.047 0.781-2.828 0z"></path>
    </symbol>
    <symbol id="icon-arrow-right2" viewBox="0 0 32 32">
      <path d="M19.414 27.414l10-10c0.781-0.781 0.781-2.047 0-2.828l-10-10c-0.781-0.781-2.047-0.781-2.828 0s-0.781 2.047 0 2.828l6.586 6.586h-19.172c-1.105 0-2 0.895-2 2s0.895 2 2 2h19.172l-6.586 6.586c-0.39 0.39-0.586 0.902-0.586 1.414s0.195 1.024 0.586 1.414c0.781 0.781 2.047 0.781 2.828 0z"></path>
    </symbol>
   <symbol id="icon-closing" viewBox="0 0 32 32">
<path d="M7.564 6.751c-0.348 0.107-0.711 0.477-0.816 0.836-0.103 0.344-0.103 0.483 0.004 0.844 0.081 0.28 0.201 0.407 3.719 3.929l3.633 3.64-3.633 3.64c-3.517 3.523-3.637 3.649-3.719 3.929-0.107 0.361-0.107 0.5-0.004 0.844 0.111 0.372 0.467 0.728 0.839 0.839 0.344 0.103 0.483 0.103 0.844-0.004 0.28-0.081 0.407-0.201 3.929-3.719l3.64-3.633 3.64 3.633c3.523 3.517 3.649 3.637 3.929 3.719 0.361 0.107 0.5 0.107 0.844 0.004 0.372-0.111 0.728-0.467 0.839-0.839 0.103-0.344 0.103-0.483-0.004-0.844-0.081-0.28-0.201-0.407-3.719-3.929l-3.633-3.64 3.633-3.64c3.517-3.523 3.637-3.649 3.719-3.929 0.107-0.361 0.107-0.5 0.004-0.844-0.137-0.396-0.443-0.702-0.829-0.836l-0.009-0.003c-0.344-0.103-0.483-0.103-0.844 0.004-0.28 0.081-0.407 0.201-3.929 3.719l-3.64 3.633-3.64-3.633c-3.523-3.517-3.649-3.637-3.929-3.719-0.349-0.103-0.537-0.103-0.867-0.001z"></path>
</symbol>
  </defs>
</svg>
