<svg fill="#000000" version="1.1" id="Capa_1" xmlns="http://www.w3.org/2000/svg" xmlns:xlink="http://www.w3.org/1999/xlink" 
	 width="800px" height="800px" viewBox="0 0 176.104 176.104"
	 xml:space="preserve">
<g>
	<g>
		<path d="M150.383,18.301c-7.13-3.928-15.308-6.187-24.033-6.187c-15.394,0-29.18,7.015-38.283,18.015
			c-9.146-11-22.919-18.015-38.334-18.015c-8.704,0-16.867,2.259-24.013,6.187C10.388,26.792,0,43.117,0,61.878
			C0,67.249,0.874,72.4,2.457,77.219c8.537,38.374,85.61,86.771,85.61,86.771s77.022-48.396,85.571-86.771
			c1.583-4.819,2.466-9.977,2.466-15.341C176.104,43.124,165.716,26.804,150.383,18.301z"/>
	</g>
</g>
</svg>